<?xml version="1.0" standalone="no"?>
<!DOCTYPE svg PUBLIC "-//W3C//DTD SVG 1.1//EN" "http://www.w3.org/Graphics/SVG/1.1/DTD/svg11.dtd" >
<svg xmlns="http://www.w3.org/2000/svg">
<metadata>
This is a custom SVG font generated by IcoMoon.
<iconset grid="20"></iconset>
</metadata>
<defs>
<font id="IconsFamily" horiz-adv-x="640" >
<font-face units-per-em="640" ascent="608" descent="-32" />
<missing-glyph horiz-adv-x="640" />
<glyph class="hidden" unicode="&#xf000;" d="M0,608L 640 -32L0 -32 z" horiz-adv-x="0" />
<glyph unicode="&#xe000;" d="M 548.035,288q0-55.714 -21.786-106.429t-58.571-87.5t-87.5-58.571t-106.429-21.786q-61.429,0 -116.786,25.892t-94.286,73.036q-2.5,3.571 -2.321,8.036t 3.036,7.321l 48.929,49.286q 3.571,3.214 8.929,3.214q 5.714-0.714 8.214-4.286q 26.071-33.929 63.929-52.5t 80.358-18.571q 37.142,0 70.892,14.464t 58.392,39.108t 39.108,58.392t 14.464,70.892t-14.464,70.892t-39.108,58.392 t-58.392,39.108t-70.892,14.464q-35,0 -67.142-12.679t-57.142-36.25l 48.929-49.286q 11.071-10.714 5-24.642q-6.071-14.286 -21.071-14.286l-160,0 q-9.286,0 -16.071,6.786t-6.786,16.071l0,160 q0,15 14.286,21.071q 13.929,6.071 24.642-5l 46.429-46.071q 38.214,36.071 87.321,55.892t 101.608,19.821q 55.714,0 106.429-21.786t 87.5-58.571t 58.571-87.5t 21.786-106.429z" horiz-adv-x="547.5" data-tags="undo, arrow, loop" />
<glyph unicode="&#xe002;" d="M 628.571,288q 5,0 8.214-3.214t 3.214-8.214l0-22.858 q0-5 -3.214-8.214t-8.214-3.214l-617.143,0 q-5,0 -8.214,3.214t-3.214,8.214l0,22.858 q0,5 3.214,8.214t 8.214,3.214l 617.143,0 zM 172.5,310.858q-10,12.5 -18.214,28.571q-17.143,34.642 -17.143,67.142q0,64.642 47.858,110.358q 47.5,45.358 140.358,45.358q 17.857,0 59.642-6.786q 23.571-4.286 63.214-17.143q 3.571-13.571 7.5-42.142q 5-43.929 5-65.358q0-6.429 -1.786-16.071l-4.286-1.071l-30,2.143 l-5,0.714q-17.857,53.214 -36.786,73.214q-31.429,32.5 -75,32.5q-40.714,0 -65-21.071q-23.929-20.714 -23.929-52.142q0-26.071 23.571-50t 99.642-46.071q 24.642-7.143 61.786-23.571q 20.714-10 33.929-18.571l-265.358,0 zM 353.571,219.429l 146.786,0 q 2.5-13.929 2.5-32.858q0-39.642 -14.643-75.714q-8.214-19.643 -25.358-37.142q-13.214-12.5 -38.929-28.929q-28.571-17.143 -54.642-23.571q-28.571-7.5 -72.5-7.5q-40.714,0 -69.642,8.214 l-50,14.286q-20.358,5.714 -25.714,10q-2.857,2.857 -2.857,7.857l0,4.643 q0,38.571 -0.714,55.714q-0.357,10.714 0,24.286l 0.714,13.214l0,15.714 l 36.429,0.714q 5.357-12.143 10.714-25.358t 8.036-20t 4.464-9.643q 12.5-20.358 28.571-33.571q 15.357-12.857 37.5-20.358q 21.071-7.857 47.142-7.857q 22.858,0 49.642,9.643q 27.5,9.286 43.571,30.714q 16.786,21.786 16.786,46.071q0,30 -28.929,56.071q-12.143,10.357 -48.929,25.358z" data-tags="strikethrough, editor, format" />
<glyph unicode="&#xe003;" d="M 136.071,29.429q0-28.571 -19.464-45t-48.392-16.429q-37.858,0 -61.429,23.571l 20.358,31.429q 17.5-16.071 37.858-16.071q 10.357,0 18.036,5.179t 7.679,15.179q0,22.858 -37.5,20l-9.286,20q 2.857,3.571 11.607,15.536t 15.179,19.286t 13.214,13.75l0,0.357 q-5.714,0 -17.321-0.357t-17.321-0.357l0-18.929 l-37.858,0 l0,54.286 l 118.929,0 l0-31.429 l-33.929-41.071q 18.214-4.286 28.929-17.5t 10.714-31.429zM 136.786,253.358l0-56.786 l-129.286,0  q-2.143,12.857 -2.143,19.286q0,18.214 8.393,33.214t 20.179,24.286t 23.571,16.964t 20.179,15.536t 8.393,16.071q0,8.929 -5.179,13.75t-14.107,4.821q-16.429,0 -28.929-20.714l-30.358,21.071q 8.571,18.214 25.536,28.392t 37.679,10.179q 26.071,0 43.929-14.821t 17.857-40.179q0-17.857 -12.143-32.679t-26.786-23.036t-26.964-18.036t-12.679-18.75l 45.358,0 l0,21.429 l 37.5,0 zM 640,139.429l0-68.571 q0-4.643 -3.393-8.036 t-8.036-3.393l-434.286,0 q-4.643,0 -8.036,3.393t-3.393,8.036l0,68.571 q0,5 3.214,8.214t 8.214,3.214l 434.286,0 q 4.643,0 8.036-3.393t 3.393-8.036zM 137.142,460.5l0-35.358 l-119.642,0 l0,35.358 l 38.214,0 q0,14.643 0.179,43.571t 0.179,43.214l0,4.286 l-0.714,0 q-2.857-6.071 -17.857-19.286l-25.358,27.142l 48.571,45.358l 37.858,0 l0-144.286 l 38.571,0 zM 640,322.286l0-68.571 q0-4.643 -3.393-8.036t-8.036-3.393l-434.286,0 q-4.643,0 -8.036,3.393 t-3.393,8.036l0,68.571 q0,5 3.214,8.214t 8.214,3.214l 434.286,0 q 4.643,0 8.036-3.393t 3.393-8.036zM 640,505.142l0-68.571 q0-4.643 -3.393-8.036t-8.036-3.393l-434.286,0 q-4.643,0 -8.036,3.393t-3.393,8.036l0,68.571 q0,4.643 3.393,8.036t 8.036,3.393l 434.286,0 q 4.643,0 8.036-3.393t 3.393-8.036z" data-tags="list-ol, numbered list" />
<glyph unicode="&#xe004;" d="M 137.142,105.142q0-28.571 -20-48.571t-48.571-20t-48.571,20t-20,48.571t 20,48.571t 48.571,20t 48.571-20t 20-48.571zM 137.142,288q0-28.571 -20-48.571t-48.571-20t-48.571,20t-20,48.571t 20,48.571t 48.571,20t 48.571-20t 20-48.571zM 640,139.429l0-68.571 q0-4.643 -3.393-8.036t-8.036-3.393l-434.286,0 q-4.643,0 -8.036,3.393t-3.393,8.036l0,68.571 q0,4.643 3.393,8.036 t 8.036,3.393l 434.286,0 q 4.643,0 8.036-3.393t 3.393-8.036zM 137.142,470.858q0-28.571 -20-48.571t-48.571-20t-48.571,20t-20,48.571t 20,48.571t 48.571,20t 48.571-20t 20-48.571zM 640,322.286l0-68.571 q0-4.643 -3.393-8.036t-8.036-3.393l-434.286,0 q-4.643,0 -8.036,3.393t-3.393,8.036l0,68.571 q0,4.643 3.393,8.036t 8.036,3.393l 434.286,0 q 4.643,0 8.036-3.393t 3.393-8.036z M 640,505.142l0-68.571 q0-4.643 -3.393-8.036t-8.036-3.393l-434.286,0 q-4.643,0 -8.036,3.393t-3.393,8.036l0,68.571 q0,4.643 3.393,8.036t 8.036,3.393l 434.286,0 q 4.643,0 8.036-3.393t 3.393-8.036z" data-tags="list-ul, bullets" />
<glyph unicode="&#xe005;" d="M 548.035,128l0-45.714 q0-9.286 -6.786-16.071t-16.071-6.786l-502.858,0 q-9.286,0 -16.071,6.786t-6.786,16.071l0,45.714 q0,9.286 6.786,16.071t 16.071,6.786l 502.858,0 q 9.286,0 16.071-6.786t 6.786-16.071zM 548.035,310.858l0-45.714 q0-9.286 -6.786-16.071t-16.071-6.786l-502.858,0 q-9.286,0 -16.071,6.786t-6.786,16.071l0,45.714 q0,9.286 6.786,16.071t 16.071,6.786l 502.858,0 q 9.286,0 16.071-6.786t 6.786-16.071zM 548.035,493.714l0-45.714 q0-9.286 -6.786-16.071 t-16.071-6.786l-502.858,0 q-9.286,0 -16.071,6.786t-6.786,16.071l0,45.714 q0,9.286 6.786,16.071t 16.071,6.786l 502.858,0 q 9.286,0 16.071-6.786t 6.786-16.071z" horiz-adv-x="547.5" data-tags="reorder, list, menu" />
<glyph unicode="&#xe006;" d="M 342.858,288q 9.286,0 16.071-6.786t 6.786-16.071t-6.786-16.071t-16.071-6.786t-16.071,6.786t-6.786,16.071t 6.786,16.071t 16.071,6.786zM 450,265.142l 181.071-142.142q 10-7.143 8.929-20q-1.786-12.5 -12.5-18.214l-45.714-22.858q-4.643-2.5 -10.357-2.5q-6.071,0 -11.071,2.857l-246.429,138.214l-39.286-23.571q-2.857-1.429 -4.286-1.786q 5-17.5 3.571-34.642q-2.5-27.5 -20-52.679t-47.142-44.108q-47.142-30 -98.929-30 q-48.571,0 -79.286,27.858q-32.142,30 -28.214,73.929q 2.5,27.142 20,52.5t 46.786,44.286q 47.142,30 99.286,30q 29.642,0 53.929-11.071q 3.214,4.643 7.857,7.857l 43.571,26.071l-43.571,26.071q-4.643,3.214 -7.857,7.857q-24.286-11.071 -53.929-11.071q-52.142,0 -99.286,30q-29.286,18.929 -46.786,44.286t-20,52.5q-1.786,21.071 5.536,40.358t 22.679,33.214q 30.358,28.214 79.286,28.214q 51.786,0 98.929-30q 29.642-18.571 47.142-43.929t 20-52.858 q 1.429-17.143 -3.571-34.642q 1.429-0.357 4.286-1.786l 39.286-23.571l 246.429,138.214q 5,2.857 11.071,2.857q 5.714,0 10.357-2.5l 45.714-22.858q 10.714-5.714 12.5-18.214q 1.071-12.857 -8.929-20zM 206.786,358q 16.429,15 7.5,38.571t-37.858,41.786q-32.858,21.071 -68.571,21.071q-26.429,0 -40.358-12.857q-16.429-15 -7.5-38.571t 37.858-41.786q 32.858-21.071 68.571-21.071q 26.429,0 40.358,12.857zM 176.429,91.929q 28.929,18.214 37.858,41.786t-7.5,38.571 q-13.929,12.857 -40.358,12.857q-35.714,0 -68.571-21.071q-28.929-18.214 -37.858-41.786t 7.5-38.571q 13.929-12.857 40.358-12.857q 35.714,0 68.571,21.071zM 240,310.858l 34.286-20.714l0,3.929 q0,12.857 11.786,20l 5,2.857l-28.214,16.786l-9.286-9.286q-1.071-1.071 -3.571-3.929t-4.286-4.286q-0.714-0.714 -1.429-1.25t-1.071-0.892zM 320,230.858l 34.286-11.429l 262.858,205.714l-45.714,22.858l-274.286-153.929l0-40.358 l-57.142-34.286l 3.214-2.857q 0.714-0.714 2.5-2.143 q 1.429-1.429 3.929-4.286t 3.929-4.286l 9.286-9.286zM 571.429,82.286l 45.714,22.858l-185.714,145.714l-63.214-49.286q-0.714-1.071 -4.643-2.5z" data-tags="cut, scissors" />
<glyph unicode="&#xe007;" d="M 519.732,173.714q0,14.286 -10,24.286l-74.286,74.286q-10,10 -24.286,10q-15,0 -25.714-11.429q 1.071-1.071 6.786-6.607t 7.679-7.679t 5.357-6.786t 4.643-9.107t 1.25-9.821q0-14.286 -10-24.286t-24.286-10q-5.357,0 -9.821,1.25t-9.107,4.643t-6.786,5.357t-7.679,7.679t-6.607,6.786q-11.786-11.071 -11.786-26.071q0-14.286 10-24.286l 73.571-73.929q 9.643-9.643 24.286-9.643q 14.286,0 24.286,9.286 l 52.5,52.142q 10,10 10,23.929zM 268.661,425.5q0,14.286 -10,24.286l-73.571,73.929q-10,10 -24.286,10q-13.929,0 -24.286-9.643l-52.5-52.142q-10-10 -10-23.929q0-14.286 10-24.286l 74.286-74.286q 9.643-9.643 24.286-9.643q 15,0 25.714,11.071q-1.071,1.071 -6.786,6.607t-7.679,7.679t-5.357,6.786t-4.643,9.107t-1.25,9.821q0,14.286 10,24.286t 24.286,10q 5.357,0 9.821-1.25t 9.107-4.643t 6.786-5.357 t 7.679-7.679t 6.607-6.786q 11.786,11.071 11.786,26.071zM 588.304,173.714q0-42.858 -30.358-72.5l-52.5-52.142q-29.642-29.642 -72.5-29.642q-43.214,0 -72.858,30.358l-73.571,73.929q-29.642,29.642 -29.642,72.5q0,43.929 31.429,74.642l-31.429,31.429q-30.714-31.429 -74.286-31.429q-42.858,0 -72.858,30l-74.286,74.286q-30,30 -30,72.858t 30.358,72.5l 52.5,52.142q 29.642,29.642 72.5,29.642q 43.214,0 72.858-30.358l 73.571-73.929 q 29.642-29.642 29.642-72.5q0-43.929 -31.429-74.642l 31.429-31.429q 30.714,31.429 74.286,31.429q 42.858,0 72.858-30l 74.286-74.286q 30-30 30-72.858z" horiz-adv-x="593.75" data-tags="link, chain, anchor" />
<glyph unicode="&#xe008;" d="M 228.334,402.168q0-28.541 -19.979-48.521t-48.521-19.979t-48.521,19.979t-19.979,48.521t 19.979,48.521t 48.521,19.979t 48.521-19.979t 19.979-48.521zM 593.668,265.167l0-159.834 l-502.334,0 l0,68.5 l 114.168,114.168l 57.082-57.082l 182.667,182.667zM 627.918,516.334l-570.834,0 q-4.638,0 -8.027-3.389t-3.389-8.027l0-433.834 q0-4.638 3.389-8.027t 8.027-3.389l 570.834,0 q 4.638,0 8.027,3.389t 3.389,8.027l0,433.834  q0,4.638 -3.389,8.027t-8.027,3.389zM 685,504.918l0-433.834 q0-23.546 -16.769-40.315t-40.315-16.769l-570.834,0 q-23.546,0 -40.315,16.769t-16.769,40.315l0,433.834 q0,23.546 16.769,40.315t 40.315,16.769l 570.834,0 q 23.546,0 40.315-16.769t 16.769-40.315z" horiz-adv-x="685" data-tags="picture, image, photo" />
<glyph unicode="&#xe009;" d="M 125.714,310.858q0-5 -3.214-8.214l-102.858-102.858q-3.214-3.214 -8.214-3.214q-4.643,0 -8.036,3.393t-3.393,8.036l0,205.714 q0,4.643 3.393,8.036t 8.036,3.393q 5,0 8.214-3.214l 102.858-102.858q 3.214-3.214 3.214-8.214zM 640,139.429l0-68.571 q0-4.643 -3.393-8.036t-8.036-3.393l-617.143,0 q-4.643,0 -8.036,3.393t-3.393,8.036l0,68.571 q0,4.643 3.393,8.036t 8.036,3.393l 617.143,0 q 4.643,0 8.036-3.393 t 3.393-8.036zM 640,276.571l0-68.571 q0-4.643 -3.393-8.036t-8.036-3.393l-388.571,0 q-4.643,0 -8.036,3.393t-3.393,8.036l0,68.571 q0,4.643 3.393,8.036t 8.036,3.393l 388.571,0 q 4.643,0 8.036-3.393t 3.393-8.036zM 640,413.714l0-68.571 q0-4.643 -3.393-8.036t-8.036-3.393l-388.571,0 q-4.643,0 -8.036,3.393t-3.393,8.036l0,68.571 q0,4.643 3.393,8.036t 8.036,3.393l 388.571,0  q 4.643,0 8.036-3.393t 3.393-8.036zM 640,550.858l0-68.571 q0-4.643 -3.393-8.036t-8.036-3.393l-617.143,0 q-4.643,0 -8.036,3.393t-3.393,8.036l0,68.571 q0,4.643 3.393,8.036t 8.036,3.393l 617.143,0 q 4.643,0 8.036-3.393t 3.393-8.036z" data-tags="indent-right" />
<glyph unicode="&#xe00a;" d="M 137.142,413.714l0-205.714 q0-4.643 -3.393-8.036t-8.036-3.393q-5,0 -8.214,3.214l-102.858,102.858q-3.214,3.214 -3.214,8.214t 3.214,8.214l 102.858,102.858q 3.214,3.214 8.214,3.214q 4.643,0 8.036-3.393t 3.393-8.036zM 640,139.429l0-68.571 q0-4.643 -3.393-8.036t-8.036-3.393l-617.143,0 q-4.643,0 -8.036,3.393t-3.393,8.036l0,68.571 q0,4.643 3.393,8.036t 8.036,3.393l 617.143,0 q 4.643,0 8.036-3.393 t 3.393-8.036zM 640,276.571l0-68.571 q0-4.643 -3.393-8.036t-8.036-3.393l-388.571,0 q-4.643,0 -8.036,3.393t-3.393,8.036l0,68.571 q0,4.643 3.393,8.036t 8.036,3.393l 388.571,0 q 4.643,0 8.036-3.393t 3.393-8.036zM 640,413.714l0-68.571 q0-4.643 -3.393-8.036t-8.036-3.393l-388.571,0 q-4.643,0 -8.036,3.393t-3.393,8.036l0,68.571 q0,4.643 3.393,8.036t 8.036,3.393l 388.571,0  q 4.643,0 8.036-3.393t 3.393-8.036zM 640,550.858l0-68.571 q0-4.643 -3.393-8.036t-8.036-3.393l-617.143,0 q-4.643,0 -8.036,3.393t-3.393,8.036l0,68.571 q0,4.643 3.393,8.036t 8.036,3.393l 617.143,0 q 4.643,0 8.036-3.393t 3.393-8.036z" data-tags="indent-left" />
<glyph unicode="&#xe00b;" d="M 91.429,139.429l0-68.571 q0-4.643 -3.393-8.036t-8.036-3.393l-68.571,0 q-4.643,0 -8.036,3.393t-3.393,8.036l0,68.571 q0,4.643 3.393,8.036t 8.036,3.393l 68.571,0 q 4.643,0 8.036-3.393t 3.393-8.036zM 91.429,276.571l0-68.571 q0-4.643 -3.393-8.036t-8.036-3.393l-68.571,0 q-4.643,0 -8.036,3.393t-3.393,8.036l0,68.571 q0,4.643 3.393,8.036t 8.036,3.393l 68.571,0 q 4.643,0 8.036-3.393 t 3.393-8.036zM 91.429,413.714l0-68.571 q0-4.643 -3.393-8.036t-8.036-3.393l-68.571,0 q-4.643,0 -8.036,3.393t-3.393,8.036l0,68.571 q0,4.643 3.393,8.036t 8.036,3.393l 68.571,0 q 4.643,0 8.036-3.393t 3.393-8.036zM 640,139.429l0-68.571 q0-4.643 -3.393-8.036t-8.036-3.393l-480,0 q-4.643,0 -8.036,3.393t-3.393,8.036l0,68.571 q0,4.643 3.393,8.036t 8.036,3.393l 480,0  q 4.643,0 8.036-3.393t 3.393-8.036zM 91.429,550.858l0-68.571 q0-4.643 -3.393-8.036t-8.036-3.393l-68.571,0 q-4.643,0 -8.036,3.393t-3.393,8.036l0,68.571 q0,4.643 3.393,8.036t 8.036,3.393l 68.571,0 q 4.643,0 8.036-3.393t 3.393-8.036zM 640,276.571l0-68.571 q0-4.643 -3.393-8.036t-8.036-3.393l-480,0 q-4.643,0 -8.036,3.393t-3.393,8.036l0,68.571 q0,4.643 3.393,8.036 t 8.036,3.393l 480,0 q 4.643,0 8.036-3.393t 3.393-8.036zM 640,413.714l0-68.571 q0-4.643 -3.393-8.036t-8.036-3.393l-480,0 q-4.643,0 -8.036,3.393t-3.393,8.036l0,68.571 q0,4.643 3.393,8.036t 8.036,3.393l 480,0 q 4.643,0 8.036-3.393t 3.393-8.036zM 640,550.858l0-68.571 q0-4.643 -3.393-8.036t-8.036-3.393l-480,0 q-4.643,0 -8.036,3.393t-3.393,8.036l0,68.571  q0,4.643 3.393,8.036t 8.036,3.393l 480,0 q 4.643,0 8.036-3.393t 3.393-8.036z" data-tags="list, menu" />
<glyph unicode="&#xe00c;" d="M 640,128l0-45.714 q0-9.286 -6.786-16.071t-16.071-6.786l-594.286,0 q-9.286,0 -16.071,6.786t-6.786,16.071l0,45.714 q0,9.286 6.786,16.071t 16.071,6.786l 594.286,0 q 9.286,0 16.071-6.786t 6.786-16.071zM 640,265.142l0-45.714 q0-9.286 -6.786-16.071t-16.071-6.786l-594.286,0 q-9.286,0 -16.071,6.786t-6.786,16.071l0,45.714 q0,9.286 6.786,16.071t 16.071,6.786l 594.286,0 q 9.286,0 16.071-6.786t 6.786-16.071zM 640,402.286l0-45.714 q0-9.286 -6.786-16.071 t-16.071-6.786l-594.286,0 q-9.286,0 -16.071,6.786t-6.786,16.071l0,45.714 q0,9.286 6.786,16.071t 16.071,6.786l 594.286,0 q 9.286,0 16.071-6.786t 6.786-16.071zM 640,539.429l0-45.714 q0-9.286 -6.786-16.071t-16.071-6.786l-594.286,0 q-9.286,0 -16.071,6.786t-6.786,16.071l0,45.714 q0,9.286 6.786,16.071t 16.071,6.786l 594.286,0 q 9.286,0 16.071-6.786t 6.786-16.071z" data-tags="align-justify, justify, paragraph, editor, format" />
<glyph unicode="&#xe00d;" d="M 640,128l0-45.714 q0-9.286 -6.786-16.071t-16.071-6.786l-594.286,0 q-9.286,0 -16.071,6.786t-6.786,16.071l0,45.714 q0,9.286 6.786,16.071t 16.071,6.786l 594.286,0 q 9.286,0 16.071-6.786t 6.786-16.071zM 640,265.142l0-45.714 q0-9.286 -6.786-16.071t-16.071-6.786l-457.142,0 q-9.286,0 -16.071,6.786t-6.786,16.071l0,45.714 q0,9.286 6.786,16.071t 16.071,6.786l 457.142,0 q 9.286,0 16.071-6.786t 6.786-16.071zM 640,402.286l0-45.714 q0-9.286 -6.786-16.071 t-16.071-6.786l-548.571,0 q-9.286,0 -16.071,6.786t-6.786,16.071l0,45.714 q0,9.286 6.786,16.071t 16.071,6.786l 548.571,0 q 9.286,0 16.071-6.786t 6.786-16.071zM 640,539.429l0-45.714 q0-9.286 -6.786-16.071t-16.071-6.786l-411.429,0 q-9.286,0 -16.071,6.786t-6.786,16.071l0,45.714 q0,9.286 6.786,16.071t 16.071,6.786l 411.429,0 q 9.286,0 16.071-6.786t 6.786-16.071z" data-tags="align-right, paragraph, editor, format" />
<glyph unicode="&#xe00e;" d="M 640,128l0-45.714 q0-9.286 -6.786-16.071t-16.071-6.786l-594.286,0 q-9.286,0 -16.071,6.786t-6.786,16.071l0,45.714 q0,9.286 6.786,16.071t 16.071,6.786l 594.286,0 q 9.286,0 16.071-6.786t 6.786-16.071zM 502.858,265.142l0-45.714 q0-9.286 -6.786-16.071t-16.071-6.786l-320,0 q-9.286,0 -16.071,6.786t-6.786,16.071l0,45.714 q0,9.286 6.786,16.071t 16.071,6.786l 320,0 q 9.286,0 16.071-6.786t 6.786-16.071zM 594.286,402.286l0-45.714 q0-9.286 -6.786-16.071t-16.071-6.786 l-502.858,0 q-9.286,0 -16.071,6.786t-6.786,16.071l0,45.714 q0,9.286 6.786,16.071t 16.071,6.786l 502.858,0 q 9.286,0 16.071-6.786t 6.786-16.071zM 457.142,539.429l0-45.714 q0-9.286 -6.786-16.071t-16.071-6.786l-228.571,0 q-9.286,0 -16.071,6.786t-6.786,16.071l0,45.714 q0,9.286 6.786,16.071t 16.071,6.786l 228.571,0 q 9.286,0 16.071-6.786t 6.786-16.071z" data-tags="align-center, paragraph, editor, format" />
<glyph unicode="&#xe00f;" d="M 640,128l0-45.714 q0-9.286 -6.786-16.071t-16.071-6.786l-594.286,0 q-9.286,0 -16.071,6.786t-6.786,16.071l0,45.714 q0,9.286 6.786,16.071t 16.071,6.786l 594.286,0 q 9.286,0 16.071-6.786t 6.786-16.071zM 502.858,265.142l0-45.714 q0-9.286 -6.786-16.071t-16.071-6.786l-457.142,0 q-9.286,0 -16.071,6.786t-6.786,16.071l0,45.714 q0,9.286 6.786,16.071t 16.071,6.786l 457.142,0 q 9.286,0 16.071-6.786t 6.786-16.071zM 594.286,402.286l0-45.714 q0-9.286 -6.786-16.071 t-16.071-6.786l-548.571,0 q-9.286,0 -16.071,6.786t-6.786,16.071l0,45.714 q0,9.286 6.786,16.071t 16.071,6.786l 548.571,0 q 9.286,0 16.071-6.786t 6.786-16.071zM 457.142,539.429l0-45.714 q0-9.286 -6.786-16.071t-16.071-6.786l-411.429,0 q-9.286,0 -16.071,6.786t-6.786,16.071l0,45.714 q0,9.286 6.786,16.071t 16.071,6.786l 411.429,0 q 9.286,0 16.071-6.786t 6.786-16.071z" data-tags="align-left, paragraph, editor, format" />
<glyph unicode="&#xe010;" d="M 28.392,561.929l 19.286-9.643q 7.143-1.786 75.358-1.786l 46.429,0 l 6.786,1.071l 41.071,0.357l 159.286-0.357l 113.571,0 l 12.143-0.714q 5-0.357 10,2.5t 7.5,5.714l 2.5,2.857l 15,0.357q 5.357,0 10-0.357l0-37.321 t 0.357-46.964l 0.357-35.714l-0.357-20.714q0-11.429 -1.429-18.214q-13.929-5.357 -24.286-6.429q-8.929,15.357 -19.286,45.714q-2.857,8.571 -5.536,22.321t-4.107,23.392t-2.143,10.357q-4.643,5.357 -9.643,6.786q-2.5,0.714 -20.892,0.714t-49.464-0.357t-45.714-0.357 q-33.571,0 -45.358-1.786q-3.571-34.642 -2.857-48.571l 0.357-54.286l0,18.571 l 1.071-128.214l-0.357-52.5q-0.357-16.429 3.929-30.358q 17.5-8.929 31.786-11.429q 0.714,0 6.429-1.786t 15.714-4.643t 15.357-4.286q 10.714-2.857 17.857-6.429q 1.786-16.071 1.786-17.857q0-3.571 -1.071-10.357q-5-0.357 -12.143-0.357q-39.286,0 -66.786,3.571q-25.714,2.857 -85,2.857q-29.286,0 -83.214-4.643q-16.071-1.786 -25-1.786q-0.714,7.857 -0.714,9.286l-0.357,9.286l0,3.214 q 7.5,11.786 28.214,17.5 q 49.642,13.571 56.786,17.857q 3.214,7.5 4.286,20q 2.143,48.929 2.143,154.642l-1.786,15.714q0,94.642 -0.714,99.286q-0.714,3.929 -2.143,5.357q-2.143,1.786 -5,2.143q-13.571,2.143 -52.858,2.143q-17.857,0 -60.179-5t-47.321-8.571q-4.643-3.214 -7.857-11.786t-7.857-26.786t-8.571-30q-2.143-6.786 -6.964-11.429t-7.321-4.643q-15.714,9.643 -20,15.714l0,106.071 l0,30.714 zM 536.965,99.786q 9.286-7.143 9.286-17.5t-9.286-17.5l-57.858-45 q-9.286-7.143 -15.893-3.929t-6.607,15l0,28.571 l-365.714,0 l0-28.571 q0-11.786 -6.607-15t-15.893,3.929l-57.858,45q-9.286,7.143 -9.286,17.5t 9.286,17.5l 57.858,45q 9.286,7.143 15.893,3.929t 6.607-15l0-28.571 l 365.714,0 l0,28.571 q0,11.786 6.607,15t 15.893-3.929z" horiz-adv-x="547.5" data-tags="text-width, format, text" />
<glyph unicode="&#xe011;" d="M 28.929,561.929l 19.286-9.643q 7.143-1.786 75.358-1.786l 46.429,0 l 6.786,1.071l 41.071,0.357l 76.786-0.357l 104.642,0 l 12.143-0.714q 5-0.357 10,2.5t 7.5,5.714l 2.5,2.857l 15,0.357q 5.357,0 10-0.357l0-37.321 t 0.357-46.964l 0.357-35.714l-0.357-20.714q0-11.429 -1.429-18.214q-13.929-5.357 -24.286-6.429q-8.929,15.357 -19.286,45.714q-2.857,8.571 -5.536,22.321t-4.107,23.392t-2.143,10.357q-4.643,5.357 -9.643,6.786q-2.5,0.714 -15.179,0.714t-36.964-0.357t-39.642-0.357 q-12.143,0 -23.929-1.786q-3.571-34.642 -2.857-48.571l 0.357-54.286l0-118.571 l 1.071-128.214l-0.357-52.5q-0.357-16.429 3.929-30.358q 17.5-8.929 31.786-11.429q 0.714,0 6.429-1.786t 15.714-4.643t 15.357-4.286q 10.714-2.857 17.857-6.429q 1.786-16.071 1.786-17.857q0-3.571 -1.071-10.357q-5-0.357 -12.143-0.357q-39.286,0 -66.786,3.571q-25.714,2.857 -85,2.857q-31.429,0 -83.214-5q-17.143-1.429 -25-1.429q-0.714,7.857 -0.714,9.286l-0.357,9.286l0,3.214 q 7.5,11.786 28.214,17.5 q 49.642,13.571 56.786,17.857q 3.214,7.5 4.286,20q 2.857,68.571 2.143,154.642l-1.786,152.858q-0.357,22.142 -0.179,42.321t 0.179,36.608t-0.714,20.358t-2.143,5.357q-2.143,1.786 -5,2.143q-13.571,2.143 -52.858,2.143q-15.357,0 -35.714-4.821t-26.071-8.75q-4.643-3.214 -7.857-11.786t-7.857-26.786t-8.571-30q-2.143-6.786 -6.964-11.429t-7.321-4.643q-15.714,9.643 -20,15.714l0,106.071 l0,30.714 zM 622.857,105.142q 11.786,0 15-6.607t-3.929-15.893 l-45-57.858q-7.143-9.286 -17.5-9.286t-17.5,9.286l-45,57.858q-7.143,9.286 -3.929,15.893t 15,6.607l 28.571,0 l0,365.714 l-28.571,0 q-11.786,0 -15,6.607t 3.929,15.893l 45,57.858q 7.143,9.286 17.5,9.286t 17.5-9.286l 45-57.858q 7.143-9.286 3.929-15.893t-15-6.607l-28.571,0 l0-365.714 l 28.571,0 z" data-tags="text-height, format, editor" />
<glyph unicode="&#xe012;" d="M-0.357,14.429l 6.071,30.358q 1.429,0.357 27.5,7.143q 27.142,6.786 41.429,13.929q 10.357,13.214 14.643,36.071l 9.643,49.642l 20,95.714l 4.286,22.858q 2.857,15.714 6.071,30.179t 5.714,23.929t 4.464,16.607t 3.214,10.893t 1.25,4.107l 10.357,56.071l 5.714,22.5l 7.857,48.214l 2.857,17.857l0,13.571 q-14.643,7.857 -51.429,10q-10,0.714 -13.571,1.429l 6.786,36.786l 113.214-5q 13.929-0.714 26.071-0.714q 23.571,0 76.429,3.214q 11.786,0.714 24.286,1.607t 12.857,0.892q-0.714-6.786 -2.143-13.571 q-2.5-10.357 -4.643-18.214q-19.643-6.786 -38.929-11.071q-22.858-5.714 -36.071-11.071q-4.286-11.071 -8.571-31.429q-3.214-15.714 -4.643-29.286q-15.714-71.071 -23.571-109.286l-21.786-111.071l-13.571-56.429l-15.357-83.929l-4.286-16.071q-0.714-2.5 0.357-9.643q 22.858-5.357 42.5-7.5q 12.857-1.786 23.571-3.571q-0.357-10.357 -2.5-20.714q-2.5-11.071 -3.214-14.643q-6.429,0 -8.214-0.357q-8.571-0.714 -15-0.714q-3.214,0 -10,1.071q-6.786,1.429 -51.786,6.071 l-70.714,0.714q-14.643,0.357 -62.142-3.929q-26.429-2.5 -35-3.214z" horiz-adv-x="365" data-tags="italic, editor, format" />
<glyph unicode="&#xe013;" d="M 198.035,64.786q 27.142-11.429 50-11.429q 46.786,0 77.142,14.643t 43.571,40.358q 13.571,25 13.571,64.642q0,40.714 -14.643,64.286q-20.714,33.571 -50.358,45q-28.571,11.429 -88.214,11.429q-26.429,0 -36.071-3.571l0-51.429 l-0.357-61.786l 1.071-96.429q0-5.357 4.286-15.714zM 193.035,331.214q 15.357-2.5 38.929-2.5q 62.5,0 94.286,23.214t 31.786,80q0,40 -30.358,66.786q-30,26.786 -91.071,26.786q-18.571,0 -46.429-4.643q0-15.714 0.714-27.5 q 2.5-43.571 2.143-99.642l-0.357-35q0-15.357 0.357-27.5zM-0.179,13.714l 0.714,33.571q 16.071,3.214 24.286,4.286q 27.5,4.286 43.929,11.071q 6.071,9.643 7.5,18.214q 3.214,23.571 3.214,69.286l-0.714,177.5q-1.786,91.429 -3.214,144.286q-0.357,31.071 -3.929,38.929q-0.357,1.429 -4.286,4.286q-6.429,4.286 -24.642,5.357q-10.714,0.714 -40.714,4.643l-1.429,29.642l 92.858,2.143l 135.714,4.643l 16.071,0.357q 1.786,0 5,0.179t 5,0.179q 0.357,0 7.679-0.179t 14.464-0.179l 26.429,0 q 31.429,0 68.214-9.643 q 15.357-4.643 34.286-13.929q 20.358-10.357 36.429-27.142q 15.714-16.786 23.214-37.142t 7.5-43.571q0-25 -11.429-45.714t-33.929-37.5q-9.286-7.143 -53.571-27.5q 63.214-14.643 95.358-52.142q 32.858-37.858 32.858-84.286q0-27.142 -10.357-57.5q-7.5-22.142 -25.358-41.786q-23.571-25.714 -50-38.571q-26.071-12.857 -72.5-21.429q-29.286-5.357 -70.714-3.929l-70.358,1.429q-30,0.714 -106.429-3.929q-11.786-1.071 -97.142-3.929z" horiz-adv-x="502.5" data-tags="bold, editor, format" />
<glyph unicode="&#xe014;" d="M 258.661,408.358l-60.714-160.714q 26.071-0.357 54.821-0.714t 42.5-0.536t 18.75-0.179l 10.357,0.714q-11.429,33.929 -32.858,86.071q-18.929,47.142 -32.858,75.358zM 7.232,13.714l-7.5,0 l 0.714,28.214q 7.857,2.5 28.571,6.429q 31.786,5.714 39.286,11.071q 7.143,5.714 17.143,24.286l 84.642,220l 100,258.571l 26.786,0 l 18.929,0 l 3.929-7.5l 73.214-171.429q 36.786-86.429 44.286-106.071q 13.929-36.429 34.286-83.929q 9.286-20.714 23.214-58.571q 8.571-23.929 23.214-53.214 q 7.857-17.5 12.5-20.358q 7.857-6.786 24.642-8.214q 16.786-2.143 36.786-9.643q 2.143-13.929 2.143-20.358q0-5 -0.357-9.286q-28.571,0 -68.571,2.857q-33.214,2.857 -67.5,2.857q-28.214,0 -48.214-0.714l-71.429-3.929l-20.714-0.714q0,16.071 1.429,27.858l 46.786,10q 20,4.643 24.286,8.214q 4.286,4.286 4.286,9.643t-2.143,11.429l-16.786,40.714l-32.858,81.429l-160.714,0.714q-10.357-23.214 -37.142-97.858q-8.214-22.858 -8.214-30q0-11.071 6.071-15.357 q 9.286-7.5 36.786-11.429q 1.071,0 4.821-0.714t 10.714-1.786t 14.464-2.143q 0.357-10 0.357-20.714q0-6.071 -0.714-9.643q-23.571,0 -124.642,7.143l-17.143-2.857q-28.929-5 -59.642-5z" horiz-adv-x="593.75" data-tags="font, letter, glyph, editor" />
<glyph unicode="&#xe015;" d="M 548.035,516.571l0-160 q0-9.286 -6.786-16.071t-16.071-6.786l-160,0 q-15,0 -21.071,14.286q-6.071,13.929 5,24.642l 49.286,49.286q-52.858,48.929 -124.642,48.929q-37.142,0 -70.892-14.464t-58.392-39.108t-39.108-58.392t-14.464-70.892t 14.464-70.892t 39.108-58.392t 58.392-39.108t 70.892-14.464q 42.5,0 80.358,18.571t 63.929,52.5q 2.5,3.571 8.214,4.286q 5,0 8.929-3.214 l 48.929-49.286q 3.214-2.857 3.393-7.321t-2.679-8.036q-38.929-47.142 -94.286-73.036t-116.786-25.892q-55.714,0 -106.429,21.786t-87.5,58.571t-58.571,87.5t-21.786,106.429t 21.786,106.429t 58.571,87.5t 87.5,58.571t 106.429,21.786q 52.5,0 101.608-19.821t 87.321-55.892l 46.429,46.071q 10.357,11.071 25,5q 13.929-6.071 13.929-21.071z" horiz-adv-x="547.5" data-tags="repeat, loop, reload, refresh, synchronize" />
<glyph unicode="&#xf053;" d="M 264.911,46.214l-232.858,232.5q-13.214,13.214 -13.214,32.321t 13.214,32.321l 232.858,232.5q 13.214,13.214 32.321,13.214t 32.321-13.214l 26.786-26.786q 13.214-13.214 13.214-32.321t-13.214-32.321l-173.571-173.571l 173.571-173.214q 13.214-13.571 13.214-32.5t-13.214-32.142l-26.786-26.786q-13.214-13.214 -32.321-13.214t-32.321,13.214z" horiz-adv-x="411.25" data-tags="chevron-left, arrow-left, left, previous" />
<glyph unicode="&#xf054;" d="M 392.41,310.858q0-18.571 -13.214-32.5l-232.858-232.5q-13.214-13.214 -32.142-13.214t-32.142,13.214l-27.142,26.786q-13.214,13.929 -13.214,32.5q0,18.929 13.214,32.142l 173.571,173.571l-173.571,173.214q-13.214,13.929 -13.214,32.5q0,18.929 13.214,32.142l 27.142,26.786q 12.857,13.571 32.142,13.571t 32.142-13.571l 232.858-232.5q 13.214-13.214 13.214-32.142z" horiz-adv-x="411.25" data-tags="chevron-right, right, arrow-right, next" />
<glyph unicode="&#xe001;" d="M 16.606,528.358q-13.214,0.714 -16.071,1.429l-1.071,31.429q 4.643,0.357 14.286,0.357q 21.429,0 40-1.429q 47.142-2.5 59.286-2.5q 30.714,0 60,1.071q 41.429,1.429 52.142,1.786q 20,0 30.714,0.714l-0.357-5l 0.714-22.858l0-3.214 q-21.429-3.214 -44.286-3.214q-21.429,0 -28.214-8.929q-4.643-5 -4.643-47.142q0-4.643 0.179-11.607t 0.179-9.107l 0.357-81.786l 5-100q 2.143-44.286 18.214-72.142q 12.5-21.071 34.286-32.858q 31.429-16.786 63.214-16.786 q 37.142,0 68.214,10q 20,6.429 35.358,18.214q 17.143,12.857 23.214,22.858q 12.857,20 18.929,40.714q 7.5,26.071 7.5,81.786q0,28.214 -1.25,45.714t-3.929,43.75t-4.821,56.964l-1.429,21.071q-1.786,23.929 -8.571,31.429q-12.143,12.5 -27.5,12.143l-35.714-0.714l-5,1.071l 0.714,30.714l 30,0 l 73.214-3.571q 27.142-1.071 70,3.571l 6.429-0.714q 2.143-13.571 2.143-18.214q0-2.5 -1.429-11.071q-16.071-4.286 -30-4.643q-26.071-3.929 -28.214-6.071q-5.357-5.357 -5.357-14.643 q0-2.5 0.536-9.643t 0.536-11.071q 2.857-6.786 7.857-141.429q 2.143-69.642 -5.357-108.571q-5.357-27.142 -14.643-43.571q-13.571-23.214 -40-43.929q-26.786-20.358 -65-31.786q-38.929-11.786 -91.071-11.786q-59.642,0 -101.429,16.429q-42.5,16.786 -63.929,43.571q-21.786,27.142 -29.642,69.642q-5.714,28.571 -5.714,84.642l0,118.929 q0,67.142 -6.071,76.071q-8.929,12.857 -52.5,13.929zM 548.035,25.143l0,22.858 q0,5 -3.214,8.214t-8.214,3.214l-525.714,0  q-5,0 -8.214-3.214t-3.214-8.214l0-22.858 q0-5 3.214-8.214t 8.214-3.214l 525.714,0 q 5,0 8.214,3.214t 3.214,8.214z" horiz-adv-x="547.5" data-tags="underline, editor, format" />
<glyph unicode="&#xe017;" d="M 33.549,486.481c 21.24,6.067 43.381-6.231 49.45-27.473L 86.137,448.020L 459.226,448.020 l 5.62,44.961
		C 467.349,512.999, 484.365,528.020, 504.538,528.020L 604.538,528.020 C 626.629,528.020, 644.538,510.111, 644.538,488.020s -17.909-40, -40-40l -64.689,0 l -35.62-284.961
		C 501.726,143.043, 484.71,128.020, 464.538,128.020l -340,0 c -17.859,0, -33.555,11.84, -38.461,29.011l -80,280
		C 0.007,458.273, 12.308,480.413, 33.549,486.481z M 324.538,288.020l 0,40 l -79.998,0 l 0-40 L 324.538,288.020 z M 244.54,248.020l 0-40 L 324.538,208.020 l 0,40 L 244.54,248.020 z M 324.538,368.020l 0,40 
		l -79.998,0 l 0-40 L 324.538,368.020 z M 454.226,408.020L 364.538,408.020 l 0-40 l 84.689,0 L 454.226,408.020z M 444.226,328.020L 364.538,328.020 l 0-40 l 74.689,0 L 444.226,328.020z M 434.226,248.020L 364.538,248.020 l 0-40 l 64.689,0 
		L 434.226,248.020z M 154.71,208.020l 49.83,0 l 0,40 l -61.259,0 L 154.71,208.020z M 131.852,288.020l 72.688,0 l 0,40 l -84.116,0 L 131.852,288.020z M 108.995,368.020l 95.545,0 
		l 0,40 l -106.974,0 L 108.995,368.020zM 484.538,28.020A60,60 4140 1 1 364.538,28.019999999999982A60,60 4140 1 1 484.538,28.019999999999982zM 244.537,28.020A60,60 4140 1 1 124.537,28.019999999999982A60,60 4140 1 1 244.537,28.019999999999982z" data-tags="cart, ecommerce, shopping, products, purchase, buy, store" />
<glyph unicode="&#xf00c;" d="M 596.786,405.858q0-14.286 -10-24.286l-258.571-258.571l-48.571-48.571q-10-10 -24.286-10t-24.286,10l-48.571,48.571l-129.286,129.286q-10,10 -10,24.286t 10,24.286l 48.571,48.571q 10,10 24.286,10t 24.286-10l 105-105.358l 234.286,234.642q 10,10 24.286,10t 24.286-10l 48.571-48.571q 10-10 10-24.286z" data-tags="ok, checkmark, tick, correct" />
<glyph unicode="&#xf014;" d="M 182.679,345.142l0-205.714 q0-5 -3.214-8.214t-8.214-3.214l-22.858,0 q-5,0 -8.214,3.214t-3.214,8.214l0,205.714 q0,5 3.214,8.214t 8.214,3.214l 22.858,0 q 5,0 8.214-3.214t 3.214-8.214zM 274.108,345.142l0-205.714 q0-5 -3.214-8.214t-8.214-3.214l-22.858,0 q-5,0 -8.214,3.214t-3.214,8.214l0,205.714 q0,5 3.214,8.214t 8.214,3.214l 22.858,0 q 5,0 8.214-3.214t 3.214-8.214zM 365.535,345.142l0-205.714 q0-5 -3.214-8.214t-8.214-3.214l-22.858,0 q-5,0 -8.214,3.214t-3.214,8.214l0,205.714  q0,5 3.214,8.214t 8.214,3.214l 22.858,0 q 5,0 8.214-3.214t 3.214-8.214zM 411.25,86.571l0,338.571 l-320,0 l0-338.571 q0-7.857 2.5-14.464t 5.179-9.643t 3.75-3.036l 297.142,0 q 1.071,0 3.75,3.036t 5.179,9.643t 2.5,14.464zM 171.25,470.858l 160,0 l-17.143,41.786q-2.5,3.214 -6.071,3.929l-113.214,0 q-3.571-0.714 -6.071-3.929zM 502.679,459.429l0-22.858 q0-5 -3.214-8.214t-8.214-3.214l-34.286,0 l0-338.571 q0-29.642 -16.786-51.25t-40.358-21.608l-297.142,0  q-23.571,0 -40.358,20.892t-16.786,50.536l0,340 l-34.286,0 q-5,0 -8.214,3.214t-3.214,8.214l0,22.858 q0,5 3.214,8.214t 8.214,3.214l 110.358,0 l 25,59.642q 5.357,13.214 19.286,22.5t 28.214,9.286l 114.286,0 q 14.286,0 28.214-9.286t 19.286-22.5l 25-59.642l 110.358,0 q 5,0 8.214-3.214t 3.214-8.214z" horiz-adv-x="502.5" data-tags="trash, remove, delete, bin" />
<glyph unicode="&#xf00a;" d="M 182.858,162.286l0-68.571 q0-14.286 -10-24.286t-24.286-10l-114.286,0 q-14.286,0 -24.286,10t-10,24.286l0,68.571 q0,14.286 10,24.286t 24.286,10l 114.286,0 q 14.286,0 24.286-10t 10-24.286zM 182.858,345.142l0-68.571 q0-14.286 -10-24.286t-24.286-10l-114.286,0 q-14.286,0 -24.286,10t-10,24.286l0,68.571 q0,14.286 10,24.286t 24.286,10l 114.286,0 q 14.286,0 24.286-10t 10-24.286zM 411.429,162.286l0-68.571 q0-14.286 -10-24.286t-24.286-10l-114.286,0  q-14.286,0 -24.286,10t-10,24.286l0,68.571 q0,14.286 10,24.286t 24.286,10l 114.286,0 q 14.286,0 24.286-10t 10-24.286zM 182.858,528l0-68.571 q0-14.286 -10-24.286t-24.286-10l-114.286,0 q-14.286,0 -24.286,10t-10,24.286l0,68.571 q0,14.286 10,24.286t 24.286,10l 114.286,0 q 14.286,0 24.286-10t 10-24.286zM 411.429,345.142l0-68.571 q0-14.286 -10-24.286t-24.286-10l-114.286,0 q-14.286,0 -24.286,10t-10,24.286l0,68.571 q0,14.286 10,24.286t 24.286,10 l 114.286,0 q 14.286,0 24.286-10t 10-24.286zM 640,162.286l0-68.571 q0-14.286 -10-24.286t-24.286-10l-114.286,0 q-14.286,0 -24.286,10t-10,24.286l0,68.571 q0,14.286 10,24.286t 24.286,10l 114.286,0 q 14.286,0 24.286-10t 10-24.286zM 411.429,528l0-68.571 q0-14.286 -10-24.286t-24.286-10l-114.286,0 q-14.286,0 -24.286,10t-10,24.286l0,68.571 q0,14.286 10,24.286t 24.286,10l 114.286,0 q 14.286,0 24.286-10t 10-24.286zM 640,345.142l0-68.571  q0-14.286 -10-24.286t-24.286-10l-114.286,0 q-14.286,0 -24.286,10t-10,24.286l0,68.571 q0,14.286 10,24.286t 24.286,10l 114.286,0 q 14.286,0 24.286-10t 10-24.286zM 640,528l0-68.571 q0-14.286 -10-24.286t-24.286-10l-114.286,0 q-14.286,0 -24.286,10t-10,24.286l0,68.571 q0,14.286 10,24.286t 24.286,10l 114.286,0 q 14.286,0 24.286-10t 10-24.286z" data-tags="th, grid" />
<glyph unicode="&#xf00b;" d="M 182.858,162.286l0-68.571 q0-14.286 -10-24.286t-24.286-10l-114.286,0 q-14.286,0 -24.286,10t-10,24.286l0,68.571 q0,14.286 10,24.286t 24.286,10l 114.286,0 q 14.286,0 24.286-10t 10-24.286zM 182.858,345.142l0-68.571 q0-14.286 -10-24.286t-24.286-10l-114.286,0 q-14.286,0 -24.286,10t-10,24.286l0,68.571 q0,14.286 10,24.286t 24.286,10l 114.286,0 q 14.286,0 24.286-10t 10-24.286zM 640,162.286l0-68.571 q0-14.286 -10-24.286t-24.286-10l-342.858,0  q-14.286,0 -24.286,10t-10,24.286l0,68.571 q0,14.286 10,24.286t 24.286,10l 342.858,0 q 14.286,0 24.286-10t 10-24.286zM 182.858,528l0-68.571 q0-14.286 -10-24.286t-24.286-10l-114.286,0 q-14.286,0 -24.286,10t-10,24.286l0,68.571 q0,14.286 10,24.286t 24.286,10l 114.286,0 q 14.286,0 24.286-10t 10-24.286zM 640,345.142l0-68.571 q0-14.286 -10-24.286t-24.286-10l-342.858,0 q-14.286,0 -24.286,10t-10,24.286l0,68.571 q0,14.286 10,24.286t 24.286,10 l 342.858,0 q 14.286,0 24.286-10t 10-24.286zM 640,528l0-68.571 q0-14.286 -10-24.286t-24.286-10l-342.858,0 q-14.286,0 -24.286,10t-10,24.286l0,68.571 q0,14.286 10,24.286t 24.286,10l 342.858,0 q 14.286,0 24.286-10t 10-24.286z" data-tags="th-list, list, ul" />
<glyph unicode="&#xf164;" d="M 91.161,128q0,9.286 -6.786,16.071t-16.071,6.786q-9.643,0 -16.25-6.786t-6.607-16.071q0-9.643 6.607-16.25t 16.25-6.607q 9.286,0 16.071,6.607t 6.786,16.25zM 148.304,310.858l0-228.571 q0-9.286 -6.786-16.071t-16.071-6.786l-102.858,0 q-9.286,0 -16.071,6.786t-6.786,16.071l0,228.571 q0,9.286 6.786,16.071t 16.071,6.786l 102.858,0 q 9.286,0 16.071-6.786t 6.786-16.071zM 571.16,310.858q0-30.714 -19.643-53.214q 5.357-15.714 5.357-27.142 q 1.071-27.142 -15.357-48.929q 6.071-20 0-41.786q-5.357-20.358 -19.286-33.571q 3.214-40 -17.5-64.642q-22.858-27.142 -70.358-27.858l-12.857,0 l-27.142,0 l-6.071,0 q-23.571,0 -51.429,5.536t-43.392,10.357t-43.036,14.107q-43.929,15.357 -56.429,15.714q-9.286,0.357 -16.071,6.964t-6.786,15.893l0,228.929 q0,8.929 6.429,15.536t 15.357,7.321q 8.571,0.714 27.142,21.071t 36.071,43.214q 24.286,31.071 36.071,42.858q 6.429,6.429 11.071,17.143t 6.25,17.321 t 4.821,21.608q 2.5,13.929 4.464,21.786t 6.964,18.571t 12.143,17.857q 6.786,6.786 16.071,6.786q 16.429,0 29.464-3.75t 21.429-9.286t 14.286-14.464t 8.571-16.071t 4.286-17.857t 1.786-16.071t 0.179-13.929q0-13.571 -3.393-27.142t-6.786-21.429t-9.821-20q-1.071-2.143 -3.571-6.429t-3.929-7.857t-2.857-8.571l 98.929,0 q 27.858,0 48.214-20.358t 20.358-48.214z" horiz-adv-x="593.75" data-tags="thumbs-up, up, rate, like" />
<glyph unicode="&#xe018;" d="M 620.164,63.378L 468.569,192.311c-15.671,14.104-32.431,20.579-45.97,19.954C 458.384,254.183, 480,308.564, 480,368
	C 480,500.549, 372.549,608, 240,608C 107.453,608,0,500.549,0,368c0-132.549, 107.451-240, 240-240c 59.436,0, 113.817,21.616, 155.735,57.402
	c-0.625-13.539, 5.85-30.299, 19.954-45.97l 128.934-151.595c 22.076-24.529, 58.139-26.596, 80.138-4.598S 644.692,41.301, 620.164,63.378z
	 M 240,208c-88.365,0-160,71.635-160,160S 151.635,528, 240,528s 160-71.635, 160-160S 328.366,208, 240,208z" data-tags="search, magnifier, lookup, find" />
<glyph unicode="&#xe016;" d="M 320,608C 143.28,608,0,464.72,0,288s 143.28-320, 320-320s 320,143.28, 320,320S 496.72,608, 320,608z M 478.28,186.28
		l-56.56-56.56L 320,231.44l-101.72-101.72l-56.56,56.56L 263.44,288l-101.72,101.72l 56.56,56.56L 320,344.56l 101.72,101.72l 56.56-56.56
		L 376.56,288L 478.28,186.28z" data-tags="x-altx-alt, cancel, close" />
<glyph unicode="&#xe01c;" d="M 447.968,435.2L 448,140.8L 192,288 z" data-tags="arrow-left, left, triangle, previous" />
<glyph unicode="&#xe019;" d="M 467.2,415.968L 172.8,416L 320,160 z" data-tags="arrow-down, triangle, down, bottom" />
<glyph unicode="&#xe01a;" d="M 172.8,160L 467.2,160L 319.968,416 z" data-tags="arrow-up, triangle, up, top" />
<glyph unicode="&#xe01b;" d="M 192.032,435.2L 192,140.8L 448,288 z" data-tags="arrow-right, triangle, right, next" />
<glyph unicode="&#x20;" horiz-adv-x="320" />
</font>
</defs>
</svg>
